<?xml version="1.0" encoding="UTF-8" standalone="no"?>
<svg fill="currentColor" height="20" viewBox="0 -960 960 960" width="20" version="1.1"
   xmlns="http://www.w3.org/2000/svg" xmlns:svg="http://www.w3.org/2000/svg">
   <path
      d="m 743.91749,-527.97997 q -1.19965,0 -9.59723,-7.19791 -19.19445,-73.17883 -72.57899,-126.56339 -53.38456,-53.38454 -126.56339,-72.57899 -2.39931,-1.19966 -7.19791,-9.59723 0,-2.3993 7.19791,-9.59722 73.17883,-19.19444 126.56339,-72.579 53.38454,-53.38456 72.57899,-126.56338 1.19966,-2.39931 9.59723,-7.19792 2.3993,0 9.59722,7.19792 20.39409,73.17882 73.17882,126.56338 52.78474,53.38456 125.96356,72.579 2.39931,0 7.19792,9.59722 0,1.19965 -7.19792,9.59723 -73.17882,19.19445 -126.56338,72.57899 -53.38456,53.38456 -72.579,126.56339 0,2.39931 -9.59722,7.19791 z M 796.70222,-0.13268868 494.38968,-302.44522 q -35.98958,28.79167 -82.77604,45.58681 -46.78647,16.79514 -99.5712,16.79514 -130.76217,0 -221.335957,-90.5738 -90.57379432,-90.57378 -90.57379432,-221.33595 0,-130.76217 90.57379432,-221.33597 90.573787,-90.57379 221.335957,-90.57379 34.78993,0 68.38021,7.19792 33.59029,7.19792 63.58161,21.59376 l -11.99653,104.36979 q -26.39236,-17.99479 -56.38368,-27.59202 -29.99133,-9.59722 -63.58161,-9.59722 -89.97396,0 -152.95574,62.98177 -62.981779,62.98179 -62.981779,152.95576 0,89.97396 62.981779,152.95574 62.98178,62.98178 152.95574,62.98178 79.1771,0 138.55991,-50.98526 59.38283,-50.98523 73.77866,-134.96094 l 86.375,59.98264 q -8.39756,26.39236 -20.99392,49.18577 -12.59636,22.7934 -28.19184,43.18751 l 302.31253,302.312529 z"
      style="stroke-width:1" />
</svg>