<svg xmlns="http://www.w3.org/2000/svg" fill="none" viewBox="0 0 16 16" width="16" height="16" color="currentColor"><path fill="currentColor" fill-rule="evenodd" d="M3.375 6a.625.625 0 1 0 0-1.25H.625a.625.625 0 1 0 0 1.25zM8.5 9.375c0 .345-.28.625-.625.625H.625a.625.625 0 1 1 0-1.25h7.25c.345 0 .625.28.625.625M10.375 14a.625.625 0 1 0 0-1.25H.625a.625.625 0 1 0 0 1.25z" clip-rule="evenodd"></path><path fill="currentColor" d="M10.154.382c.123-.49.819-.49.941 0l.297 1.186a4.18 4.18 0 0 0 3.04 3.04l1.186.296c.49.123.49.819 0 .941l-1.186.297a4.18 4.18 0 0 0-3.04 3.04l-.296 1.186c-.123.49-.82.49-.942 0l-.296-1.186a4.18 4.18 0 0 0-3.04-3.04l-1.186-.297c-.49-.122-.49-.818 0-.94l1.186-.297a4.18 4.18 0 0 0 3.04-3.04z"></path></svg>